<svg width="512" height="512" xmlns="http://www.w3.org/2000/svg">

 <g>
  <title>background</title>
  <rect fill="none" id="canvas_background" height="402" width="582" y="-1" x="-1"/>
 </g>
 <g>
  <title>Layer 1</title>
  <circle fill="#f2d272" r="256" id="XMLID_1753_" cy="256" cx="256" class="st0"/>
  <path fill="#ffffff" id="XMLID_1658_" d="m381.2,302.7l-119.9,-39l0,-126l3.8,0.1c32.9,0.6 63.7,13.8 86.8,37.3c23.1,23.5 35.9,54.6 35.9,87.6c0,12.4 -1.8,24.7 -5.4,36.5l-1.2,3.5zm-112.5,-44.3l107.6,35c2.7,-10 4.1,-20.3 4.1,-30.7c0,-62.4 -49.7,-114.3 -111.7,-117.3l0,113z" class="st1"/>
  <path fill="#ffffff" id="XMLID_1655_" d="m175.8,366.7l-3,-2.3c-30.9,-23.3 -49,-58.9 -49.7,-97.6l-0.1,-3.8l128,0l-75.2,103.7zm-45.2,-96.2c1.6,33.7 17.4,64.5 43.7,85.7l62.3,-85.7l-106,0z" class="st1"/>
  <path fill="#ffffff" id="XMLID_1652_" d="m256.6,257.1l-126.4,0l0.1,-3.8c0.6,-32.5 13.5,-63.1 36.5,-86.1c23,-23 53.6,-36 86.1,-36.5l3.8,-0.1l0,126.5l-0.1,0zm-118.9,-7.4l111.5,0l0,-111.5c-60.6,2.9 -108.6,50.9 -111.5,111.5z" class="st1"/>
  <path fill="#ffffff" id="XMLID_1649_" d="m257.2,395.2c-25.8,0 -50.6,-7.8 -71.6,-22.6l-3.1,-2.2l74.1,-102l119.9,38.9l-1.2,3.6c-17.4,50.5 -64.8,84.3 -118.1,84.3zm-64.3,-26.5c19.1,12.5 41.3,19.1 64.3,19.1c48.9,0 92.5,-30.3 109.8,-75.7l-107.6,-34.9l-66.5,91.5z" class="st1"/>
  <path fill="#ffffff" id="XMLID_1396_" d="m384.6,184.1c1.3,-0.6 2.2,-1.5 2.9,-2.5c0.7,-1.1 1.1,-2.3 1.1,-3.6c0,-2.6 -0.8,-4.6 -2.4,-5.9c-1.6,-1.4 -3.8,-2 -6.5,-2c-2.6,0 -4.8,0.7 -6.5,2.2c-1.7,1.5 -2.6,3.3 -2.5,5.4l0,0.1l4.5,0c0,-1.1 0.4,-2.1 1.3,-2.8c0.8,-0.8 1.9,-1.1 3.2,-1.1c1.4,0 2.4,0.4 3.1,1.2c0.7,0.8 1.1,1.8 1.1,3c0,1.4 -0.3,2.4 -1,3.2c-0.7,0.8 -1.8,1.1 -3.3,1.1l-3.1,0l0,3.7l3.1,0c1.6,0 2.8,0.4 3.6,1.2c0.8,0.8 1.2,2 1.2,3.6c0,1.3 -0.4,2.4 -1.3,3.3c-0.8,0.8 -2,1.3 -3.4,1.3c-1.4,0 -2.5,-0.4 -3.4,-1.2c-0.9,-0.8 -1.3,-1.8 -1.3,-3l-4.5,0l0,0.1c-0.1,2.4 0.8,4.4 2.7,5.8c1.9,1.4 4.1,2.1 6.5,2.1c2.8,0 5,-0.7 6.8,-2.2c1.7,-1.5 2.6,-3.5 2.6,-6.1c0,-1.6 -0.4,-3 -1.1,-4.1c-0.9,-1.4 -2,-2.3 -3.4,-2.8z" class="st1"/>
  <path fill="#ffffff" id="XMLID_1393_" d="m402.2,170c-2.8,0 -5.1,0.9 -6.7,2.8c-1.7,1.9 -2.5,4.5 -2.5,7.7l0,8c0,3.2 0.8,5.8 2.5,7.7c1.7,1.9 3.9,2.8 6.8,2.8c2.8,0 5,-0.9 6.7,-2.8c1.7,-1.9 2.5,-4.4 2.5,-7.7l0,-8c0,-3.2 -0.8,-5.8 -2.5,-7.7c-1.8,-1.8 -4,-2.8 -6.8,-2.8zm4.5,19.3c0,1.9 -0.4,3.4 -1.2,4.5c-0.8,1.1 -1.9,1.6 -3.3,1.6c-1.4,0 -2.6,-0.5 -3.4,-1.6c-0.8,-1.1 -1.2,-2.6 -1.2,-4.5l0,-9.4c0,-1.9 0.4,-3.4 1.2,-4.4c0.8,-1.1 1.9,-1.6 3.4,-1.6c1.4,0 2.6,0.5 3.4,1.6c0.8,1.1 1.2,2.5 1.2,4.4l0,9.4l-0.1,0z" class="st1"/>
  <polygon fill="#ffffff" points="433.8,173.1 420,195.2 422.4,196.6 436.2,174.5    " id="XMLID_1392_" class="st1"/>
  <path fill="#ffffff" id="XMLID_1389_" d="m439.4,187.6c-1.1,-1.1 -2.5,-1.7 -4.4,-1.7c-1.8,0 -3.3,0.6 -4.4,1.7c-1.1,1.1 -1.6,2.5 -1.6,4.1l0,1.5c0,1.7 0.5,3 1.6,4.2c1.1,1.1 2.5,1.7 4.4,1.7c1.8,0 3.3,-0.6 4.4,-1.7c1.1,-1.1 1.6,-2.5 1.6,-4.2l0,-1.5c0,-1.6 -0.5,-3 -1.6,-4.1zm-1.7,5.7c0,0.9 -0.2,1.6 -0.7,2.1c-0.4,0.6 -1.1,0.8 -2,0.8c-0.9,0 -1.5,-0.3 -2,-0.9c-0.5,-0.6 -0.7,-1.3 -0.7,-2.1l0,-1.5c0,-0.8 0.2,-1.5 0.7,-2.1c0.5,-0.6 1.1,-0.9 2,-0.9c0.9,0 1.5,0.3 2,0.9c0.5,0.6 0.7,1.3 0.7,2.1l0,1.6z" class="st1"/>
  <path fill="#ffffff" id="XMLID_1386_" d="m425.8,181.5c1.1,-1.1 1.6,-2.5 1.6,-4.1l0,-1.5c0,-1.7 -0.5,-3.1 -1.6,-4.2c-1.1,-1.1 -2.5,-1.7 -4.4,-1.7c-1.9,0 -3.3,0.6 -4.4,1.7c-1.1,1.1 -1.6,2.5 -1.6,4.2l0,1.5c0,1.7 0.5,3 1.6,4.1c1.1,1.1 2.5,1.7 4.4,1.7c1.9,0 3.3,-0.6 4.4,-1.7zm-7.1,-4.1l0,-1.5c0,-0.8 0.2,-1.6 0.7,-2.1c0.5,-0.6 1.1,-0.9 2,-0.9c0.9,0 1.5,0.3 2,0.9c0.5,0.6 0.7,1.3 0.7,2.1l0,1.5c0,0.8 -0.2,1.5 -0.7,2.1c-0.5,0.6 -1.1,0.9 -2,0.9c-0.9,0 -1.6,-0.3 -2,-0.9c-0.4,-0.6 -0.7,-1.3 -0.7,-2.1z" class="st1"/>
  <path fill="#ffffff" id="XMLID_1384_" d="m313.8,402.4c1.3,-0.6 2.2,-1.5 2.9,-2.5c0.7,-1.1 1.1,-2.3 1.1,-3.6c0,-2.6 -0.8,-4.6 -2.4,-5.9c-1.6,-1.4 -3.8,-2 -6.5,-2c-2.6,0 -4.8,0.7 -6.5,2.2c-1.7,1.5 -2.6,3.3 -2.5,5.4l0,0.1l4.5,0c0,-1.1 0.4,-2.1 1.3,-2.8c0.8,-0.8 1.9,-1.1 3.2,-1.1c1.4,0 2.4,0.4 3.1,1.2c0.7,0.8 1.1,1.8 1.1,3c0,1.4 -0.3,2.4 -1,3.2c-0.7,0.8 -1.8,1.1 -3.3,1.1l-3.1,0l0,3.7l3.1,0c1.6,0 2.8,0.4 3.6,1.2c0.8,0.8 1.2,2 1.2,3.6c0,1.3 -0.4,2.4 -1.3,3.3c-0.8,0.8 -2,1.3 -3.4,1.3c-1.4,0 -2.5,-0.4 -3.4,-1.2c-0.9,-0.8 -1.3,-1.8 -1.3,-3l-4.5,0l0,0.1c-0.1,2.4 0.8,4.4 2.7,5.8c1.9,1.4 4.1,2.1 6.5,2.1c2.8,0 5,-0.7 6.8,-2.2c1.7,-1.5 2.6,-3.5 2.6,-6.1c0,-1.6 -0.4,-3 -1.1,-4.1c-0.9,-1.4 -2,-2.3 -3.4,-2.8z" class="st1"/>
  <path fill="#ffffff" id="XMLID_1381_" d="m331.4,388.3c-2.8,0 -5.1,0.9 -6.7,2.8c-1.7,1.9 -2.5,4.5 -2.5,7.7l0,8c0,3.2 0.8,5.8 2.5,7.7c1.7,1.9 3.9,2.8 6.8,2.8c2.8,0 5,-0.9 6.7,-2.8c1.7,-1.9 2.5,-4.4 2.5,-7.7l0,-8c0,-3.2 -0.8,-5.8 -2.5,-7.7c-1.7,-1.8 -4,-2.8 -6.8,-2.8zm4.6,19.3c0,1.9 -0.4,3.4 -1.2,4.5c-0.8,1.1 -1.9,1.6 -3.3,1.6c-1.4,0 -2.6,-0.5 -3.4,-1.6c-0.8,-1.1 -1.2,-2.6 -1.2,-4.5l0,-9.4c0,-1.9 0.4,-3.4 1.2,-4.4c0.8,-1.1 1.9,-1.6 3.4,-1.6c1.4,0 2.6,0.5 3.4,1.6c0.8,1.1 1.2,2.5 1.2,4.4l0,9.4l-0.1,0z" class="st1"/>
  <path fill="#ffffff" id="XMLID_1378_" d="m355,399.8c1.1,-1.1 1.6,-2.5 1.6,-4.1l0,-1.5c0,-1.7 -0.5,-3.1 -1.6,-4.2c-1.1,-1.1 -2.5,-1.7 -4.4,-1.7c-1.9,0 -3.3,0.6 -4.4,1.7c-1.1,1.1 -1.6,2.5 -1.6,4.2l0,1.5c0,1.7 0.5,3 1.6,4.1c1.1,1.1 2.5,1.7 4.4,1.7c1.9,0 3.4,-0.6 4.4,-1.7zm-7.1,-4.1l0,-1.5c0,-0.8 0.2,-1.6 0.7,-2.1c0.5,-0.6 1.1,-0.9 2,-0.9c0.9,0 1.5,0.3 2,0.9c0.5,0.6 0.7,1.3 0.7,2.1l0,1.5c0,0.8 -0.2,1.5 -0.7,2.1c-0.5,0.6 -1.1,0.9 -2,0.9c-0.9,0 -1.6,-0.3 -2,-0.9c-0.4,-0.6 -0.7,-1.3 -0.7,-2.1z" class="st1"/>
  <polygon fill="#ffffff" points="363,391.4 349.2,413.5 351.7,414.9 365.5,392.8   " id="XMLID_1377_" class="st1"/>
  <path fill="#ffffff" id="XMLID_1374_" d="m364.2,404.3c-1.8,0 -3.3,0.6 -4.4,1.7c-1.1,1.1 -1.6,2.5 -1.6,4.1l0,1.5c0,1.7 0.5,3 1.6,4.2c1.1,1.1 2.5,1.7 4.4,1.7c1.8,0 3.3,-0.6 4.4,-1.7c1.1,-1.1 1.6,-2.5 1.6,-4.2l0,-1.5c0,-1.7 -0.5,-3 -1.6,-4.2c-1,-1.1 -2.5,-1.6 -4.4,-1.6zm2.7,7.3c0,0.9 -0.2,1.6 -0.7,2.1c-0.4,0.6 -1.1,0.8 -2,0.8c-0.9,0 -1.5,-0.3 -2,-0.9c-0.5,-0.6 -0.7,-1.3 -0.7,-2.1l0,-1.5c0,-0.8 0.2,-1.5 0.7,-2.1c0.5,-0.6 1.1,-0.9 2,-0.9c0.9,0 1.5,0.3 2,0.9c0.5,0.6 0.7,1.3 0.7,2.1l0,1.6z" class="st1"/>
  <polygon fill="#ffffff" points="71,321.7 77,321.7 77,345.6 81.7,345.6 81.7,317 71,318   " id="XMLID_1373_" class="st1"/>
  <path fill="#ffffff" id="XMLID_1372_" d="m102,327.2c-0.9,0 -1.8,0.2 -2.6,0.4c-0.8,0.3 -1.4,0.6 -2,1l0.9,-7.2l11,0l0,-4.1l-14.9,0l-1.6,15.8l4,0.3c0.3,-0.8 0.7,-1.4 1.4,-1.8c0.6,-0.4 1.6,-0.6 2.9,-0.6c1.5,0 2.6,0.5 3.4,1.5c0.8,1 1.2,2.4 1.2,4.1c0,1.8 -0.4,3.1 -1.1,4.1c-0.8,1 -1.9,1.5 -3.4,1.5c-1.3,0 -2.3,-0.4 -3.1,-1.1c-0.8,-0.7 -1.2,-1.8 -1.2,-3.1l-4.4,0.1l0,0.1c-0.1,2.5 0.8,4.4 2.5,5.7c1.7,1.3 3.8,2 6.3,2c3.1,0 5.4,-0.9 6.9,-2.6c1.5,-1.7 2.3,-4 2.3,-6.8c0,-3 -0.7,-5.3 -2.2,-6.9c-1.6,-1.6 -3.6,-2.4 -6.3,-2.4z" class="st1"/>
  <path fill="#ffffff" id="XMLID_1369_" d="m124.6,328.4c1.1,-1.1 1.6,-2.5 1.6,-4.1l0,-1.5c0,-1.7 -0.5,-3.1 -1.6,-4.2c-1.1,-1.1 -2.5,-1.7 -4.4,-1.7c-1.9,0 -3.3,0.6 -4.4,1.7c-1.1,1.1 -1.6,2.5 -1.6,4.2l0,1.5c0,1.7 0.5,3 1.6,4.1c1.1,1.1 2.5,1.7 4.4,1.7c1.9,0 3.4,-0.6 4.4,-1.7zm-7.1,-4.1l0,-1.5c0,-0.8 0.2,-1.6 0.7,-2.1c0.5,-0.6 1.1,-0.9 2,-0.9c0.9,0 1.5,0.3 2,0.9c0.5,0.6 0.7,1.3 0.7,2.1l0,1.5c0,0.8 -0.2,1.5 -0.7,2.1c-0.5,0.6 -1.1,0.9 -2,0.9c-0.9,0 -1.6,-0.3 -2,-0.9c-0.4,-0.6 -0.7,-1.3 -0.7,-2.1z" class="st1"/>
  <path fill="#ffffff" id="XMLID_1366_" d="m133.8,332.9c-1.8,0 -3.3,0.6 -4.4,1.7c-1.1,1.1 -1.6,2.5 -1.6,4.1l0,1.5c0,1.7 0.5,3 1.6,4.2c1.1,1.1 2.5,1.7 4.4,1.7c1.8,0 3.3,-0.6 4.4,-1.7c1.1,-1.1 1.6,-2.5 1.6,-4.2l0,-1.5c0,-1.7 -0.5,-3 -1.6,-4.2c-1,-1.1 -2.5,-1.6 -4.4,-1.6zm2.7,7.3c0,0.9 -0.2,1.6 -0.7,2.1c-0.4,0.6 -1.1,0.8 -2,0.8c-0.9,0 -1.5,-0.3 -2,-0.9c-0.5,-0.6 -0.7,-1.3 -0.7,-2.1l0,-1.5c0,-0.8 0.2,-1.5 0.7,-2.1c0.5,-0.6 1.1,-0.9 2,-0.9c0.9,0 1.5,0.3 2,0.9c0.5,0.6 0.7,1.3 0.7,2.1l0,1.6z" class="st1"/>
  <polygon fill="#ffffff" points="132.6,320 118.8,342.1 121.3,343.5 135,321.4   " id="XMLID_1365_" class="st1"/>
  <path fill="#ffffff" id="XMLID_1364_" d="m106.1,158.9l6,-6.8c1.9,-2.3 3.3,-4.2 4.2,-5.6c0.8,-1.4 1.3,-2.9 1.3,-4.5c0,-2.4 -0.8,-4.3 -2.3,-5.7c-1.5,-1.4 -3.6,-2.2 -6.3,-2.2c-2.8,0 -5.1,0.8 -6.7,2.5c-1.7,1.7 -2.5,3.7 -2.4,6.1l0,0.1l4.6,0c0,-1.4 0.4,-2.6 1.2,-3.6c0.8,-0.9 1.9,-1.4 3.4,-1.4c1.3,0 2.2,0.4 2.9,1.1c0.7,0.8 1,1.7 1,2.9c0,1 -0.3,2.1 -0.8,3.2c-0.6,1.1 -1.6,2.5 -3,4.2l-8.8,10.2l0,3.2l18.2,0l0,-3.6l-12.5,-0.1l0,0z" class="st1"/>
  <path fill="#ffffff" id="XMLID_1363_" d="m125.3,161.2c1.7,1.3 3.8,2 6.3,2c3.1,0 5.4,-0.9 6.9,-2.6c1.5,-1.7 2.3,-4 2.3,-6.8c0,-3 -0.7,-5.3 -2.2,-6.9c-1.5,-1.7 -3.5,-2.5 -6.1,-2.5c-0.9,0 -1.8,0.2 -2.6,0.4c-0.8,0.3 -1.4,0.6 -2,1l0.9,-7.2l11,0l0,-4.1l-14.9,0l-1.6,15.8l4,0.3c0.3,-0.8 0.7,-1.4 1.4,-1.8c0.6,-0.4 1.6,-0.6 2.9,-0.6c1.5,0 2.6,0.5 3.4,1.5c0.8,1 1.2,2.4 1.2,4.1c0,1.8 -0.4,3.1 -1.1,4.1c-0.8,1 -1.9,1.5 -3.4,1.5c-1.3,0 -2.3,-0.4 -3.1,-1.1c-0.8,-0.7 -1.2,-1.8 -1.2,-3.1l-4.4,0.1l0,0.1c-0.3,2.5 0.6,4.4 2.3,5.8z" class="st1"/>
  <path fill="#ffffff" id="XMLID_1360_" d="m159.9,151.7c-1.1,1.1 -1.6,2.5 -1.6,4.1l0,1.5c0,1.7 0.5,3 1.6,4.2c1.1,1.1 2.5,1.7 4.4,1.7c1.8,0 3.3,-0.6 4.4,-1.7c1.1,-1.1 1.6,-2.5 1.6,-4.2l0,-1.5c0,-1.7 -0.5,-3 -1.6,-4.2c-1.1,-1.1 -2.5,-1.7 -4.4,-1.7c-1.9,0.1 -3.3,0.7 -4.4,1.8zm7.1,4.1l0,1.5c0,0.9 -0.2,1.6 -0.7,2.1c-0.4,0.6 -1.1,0.8 -2,0.8c-0.9,0 -1.5,-0.3 -2,-0.9c-0.5,-0.6 -0.7,-1.3 -0.7,-2.1l0,-1.5c0,-0.8 0.2,-1.5 0.7,-2.1c0.5,-0.6 1.1,-0.9 2,-0.9c0.9,0 1.5,0.3 2,0.9c0.4,0.7 0.7,1.4 0.7,2.2z" class="st1"/>
  <polygon fill="#ffffff" points="151.7,160.7 165.5,138.6 163.1,137.2 149.3,159.3   " id="XMLID_1359_" class="st1"/>
  <path fill="#ffffff" id="XMLID_1356_" d="m150.7,147.3c1.8,0 3.3,-0.6 4.4,-1.7c1.1,-1.1 1.6,-2.5 1.6,-4.1l0,-1.5c0,-1.7 -0.5,-3.1 -1.6,-4.2c-1.1,-1.1 -2.5,-1.7 -4.4,-1.7c-1.9,0 -3.3,0.6 -4.4,1.7c-1.1,1.1 -1.6,2.5 -1.6,4.2l0,1.5c0,1.7 0.5,3 1.6,4.1c1.1,1.1 2.5,1.7 4.4,1.7zm-2.7,-7.3c0,-0.8 0.2,-1.6 0.7,-2.1c0.5,-0.6 1.1,-0.9 2,-0.9c0.9,0 1.5,0.3 2,0.9c0.5,0.6 0.7,1.3 0.7,2.1l0,1.5c0,0.8 -0.2,1.5 -0.7,2.1c-0.5,0.6 -1.1,0.9 -2,0.9c-0.9,0 -1.6,-0.3 -2,-0.9c-0.5,-0.6 -0.7,-1.3 -0.7,-2.1l0,-1.5z" class="st1"/>
 </g>
</svg>