<svg width="512" height="512" xmlns="http://www.w3.org/2000/svg">

 <g>
  <title>background</title>
  <rect fill="none" id="canvas_background" height="402" width="582" y="-1" x="-1"/>
 </g>
 <g>
  <title>Layer 1</title>
  <circle fill="#f2c879" r="256" id="XMLID_1754_" cy="256" cx="256" class="st0"/>
  <polygon fill="#ffffff" points="316.9,134.5 322.5,134.5 322.5,156.8 326.9,156.8 326.9,130 316.9,131    " id="XMLID_1354_" class="st1"/>
  <path fill="#ffffff" id="XMLID_1353_" d="m345.9,139.6c-0.9,0 -1.7,0.1 -2.4,0.4c-0.7,0.3 -1.3,0.6 -1.9,0.9l0.8,-6.7l10.3,0l0,-3.8l-13.9,0l-1.5,14.7l3.8,0.3c0.3,-0.8 0.7,-1.3 1.3,-1.7c0.6,-0.4 1.5,-0.6 2.7,-0.6c1.4,0 2.4,0.5 3.2,1.4c0.7,1 1.1,2.2 1.1,3.8c0,1.6 -0.4,2.9 -1.1,3.9c-0.7,0.9 -1.8,1.4 -3.1,1.4c-1.2,0 -2.2,-0.3 -2.9,-1c-0.7,-0.7 -1.1,-1.7 -1.1,-2.9l-4.1,0.1l0,0.1c-0.1,2.3 0.7,4.1 2.3,5.4c1.6,1.3 3.6,1.9 5.9,1.9c2.9,0 5,-0.8 6.5,-2.5c1.4,-1.6 2.2,-3.8 2.2,-6.4c0,-2.8 -0.7,-4.9 -2.1,-6.5c-1.6,-1.4 -3.5,-2.2 -6,-2.2z" class="st1"/>
  <path fill="#ffffff" id="XMLID_1350_" d="m379.8,146.5c-1,-1 -2.4,-1.6 -4.1,-1.6c-1.7,0 -3.1,0.5 -4.1,1.6c-1,1 -1.5,2.3 -1.5,3.9l0,1.4c0,1.6 0.5,2.8 1.5,3.9c1,1 2.4,1.6 4.1,1.6c1.7,0 3.1,-0.5 4.1,-1.6c1,-1 1.5,-2.3 1.5,-3.9l0,-1.4c0,-1.6 -0.5,-2.9 -1.5,-3.9zm-1.6,5.3c0,0.8 -0.2,1.5 -0.6,2c-0.4,0.5 -1,0.8 -1.9,0.8c-0.8,0 -1.4,-0.3 -1.9,-0.8c-0.5,-0.5 -0.7,-1.2 -0.7,-2l0,-1.4c0,-0.8 0.2,-1.4 0.7,-2c0.4,-0.5 1.1,-0.8 1.9,-0.8c0.8,0 1.4,0.3 1.9,0.8c0.4,0.5 0.7,1.2 0.7,2l0,1.4l-0.1,0z" class="st1"/>
  <path fill="#ffffff" id="XMLID_1347_" d="m367,140.8c1,-1 1.5,-2.3 1.5,-3.9l0,-1.4c0,-1.6 -0.5,-2.9 -1.5,-3.9c-1,-1 -2.4,-1.6 -4.1,-1.6c-1.7,0 -3.1,0.5 -4.1,1.6c-1,1 -1.5,2.3 -1.5,3.9l0,1.4c0,1.6 0.5,2.8 1.5,3.9c1,1 2.4,1.6 4.1,1.6c1.8,-0.1 3.1,-0.6 4.1,-1.6zm-6.6,-3.9l0,-1.4c0,-0.8 0.2,-1.5 0.7,-2c0.4,-0.5 1.1,-0.8 1.9,-0.8c0.8,0 1.4,0.3 1.9,0.8c0.4,0.5 0.7,1.2 0.7,2l0,1.4c0,0.8 -0.2,1.4 -0.6,2c-0.4,0.5 -1,0.8 -1.8,0.8c-0.8,0 -1.5,-0.3 -1.9,-0.8c-0.7,-0.6 -0.9,-1.2 -0.9,-2z" class="st1"/>
  <polygon fill="#ffffff" points="374.5,132.9 361.6,153.6 363.9,154.9 376.8,134.2    " id="XMLID_1346_" class="st1"/>
  <path fill="#ffffff" id="XMLID_1343_" d="m383.5,314.2c1.4,0 2.5,-0.4 3.1,-1.1c0.6,-0.7 0.9,-1.7 0.9,-3c0,-1.2 -0.3,-2.1 -1,-2.8c-0.7,-0.7 -1.7,-1.1 -2.9,-1.1c-1.2,0 -2.2,0.4 -3,1.1c-0.8,0.7 -1.2,1.6 -1.2,2.7l-4.2,0l0,-0.1c-0.1,-2 0.7,-3.7 2.3,-5.1c1.6,-1.4 3.6,-2.1 6.1,-2.1c2.6,0 4.6,0.6 6.1,1.9c1.5,1.3 2.2,3.1 2.2,5.5c0,1.2 -0.3,2.3 -1,3.3c-0.7,1 -1.6,1.8 -2.8,2.4c1.3,0.5 2.4,1.3 3.1,2.4c0.7,1.1 1.1,2.4 1.1,3.9c0,2.4 -0.8,4.3 -2.5,5.7c-1.6,1.4 -3.7,2.1 -6.3,2.1c-2.3,0 -4.4,-0.7 -6.1,-2c-1.8,-1.3 -2.6,-3.1 -2.5,-5.4l0,-0.1l4.3,0c0,1.1 0.4,2 1.2,2.8c0.8,0.8 1.9,1.1 3.2,1.1c1.3,0 2.4,-0.4 3.2,-1.2c0.8,-0.8 1.2,-1.8 1.2,-3.1c0,-1.5 -0.4,-2.6 -1.1,-3.4c-0.7,-0.7 -1.8,-1.1 -3.3,-1.1l-2.9,0l0,-3.5l2.8,0l0,0.2z" class="st1"/>
  <path fill="#ffffff" id="XMLID_1340_" d="m413.4,320c0,3.1 -0.8,5.5 -2.4,7.2c-1.6,1.8 -3.7,2.6 -6.3,2.6c-2.6,0 -4.7,-0.9 -6.3,-2.6c-1.6,-1.8 -2.4,-4.2 -2.4,-7.2l0,-7.5c0,-3 0.8,-5.4 2.4,-7.2c1.6,-1.8 3.7,-2.7 6.3,-2.7c2.6,0 4.7,0.9 6.3,2.7c1.6,1.8 2.4,4.2 2.4,7.2l0,7.5zm-4.5,-8.1c0,-1.8 -0.4,-3.2 -1.1,-4.2c-0.8,-1 -1.8,-1.5 -3.1,-1.5c-1.4,0 -2.4,0.5 -3.1,1.5c-0.7,1 -1.1,2.4 -1.1,4.2l0,8.8c0,1.8 0.4,3.2 1.1,4.2c0.8,1 1.8,1.5 3.2,1.5c1.4,0 2.4,-0.5 3.1,-1.5c0.7,-1 1.1,-2.4 1.1,-4.2l0,-8.8l-0.1,0z" class="st1"/>
  <path fill="#ffffff" id="XMLID_1334_" d="m417.1,308.1c0,-1.5 0.5,-2.8 1.5,-3.9c1,-1 2.4,-1.6 4.1,-1.6c1.7,0 3.1,0.5 4.1,1.6c1,1 1.5,2.3 1.5,3.9l0,1.4c0,1.6 -0.5,2.8 -1.5,3.9c-1,1 -2.4,1.6 -4.1,1.6c-1.7,0 -3.1,-0.5 -4.1,-1.6c-1,-1 -1.5,-2.3 -1.5,-3.9l0,-1.4zm3,1.4c0,0.8 0.2,1.4 0.7,2c0.4,0.5 1.1,0.8 1.9,0.8c0.8,0 1.4,-0.3 1.8,-0.8c0.4,-0.5 0.6,-1.2 0.6,-2l0,-1.4c0,-0.8 -0.2,-1.5 -0.7,-2c-0.4,-0.5 -1.1,-0.8 -1.9,-0.8c-0.8,0 -1.4,0.3 -1.9,0.8c-0.4,0.5 -0.7,1.2 -0.7,2l0,1.4l0.2,0zm3.5,18l-2.3,-1.3l12.9,-20.7l2.3,1.3l-12.9,20.7zm6.2,-4.5c0,-1.5 0.5,-2.8 1.5,-3.9c1,-1 2.4,-1.6 4.1,-1.6c1.7,0 3.1,0.5 4.1,1.6c1,1 1.5,2.3 1.5,3.9l0,1.4c0,1.6 -0.5,2.9 -1.5,3.9c-1,1 -2.4,1.6 -4.1,1.6c-1.7,0 -3.1,-0.5 -4.1,-1.6c-1,-1 -1.5,-2.3 -1.5,-3.9l0,-1.4zm3.1,1.4c0,0.8 0.2,1.4 0.7,2s1.1,0.8 1.9,0.8c0.8,0 1.5,-0.3 1.9,-0.8c0.4,-0.5 0.6,-1.2 0.6,-2l0,-1.4c0,-0.8 -0.2,-1.4 -0.7,-2c-0.4,-0.5 -1.1,-0.8 -1.9,-0.8c-0.8,0 -1.4,0.3 -1.9,0.8c-0.4,0.5 -0.7,1.2 -0.7,2l0,1.4l0.1,0z" class="st1"/>
  <path fill="#ffffff" id="XMLID_1646_" d="m260.7,264l0,-116.1l3.8,0.1c34.8,0.6 66.8,16.9 87.9,44.8l2.3,3l-94,68.2zm7.4,-108.5l0,93.9l76,-55.2c-18.9,-23.2 -46.2,-37.1 -76,-38.7z" class="st1"/>
  <path fill="#ffffff" id="XMLID_1643_" d="m252.7,382c-62,0 -112.5,-50.4 -112.5,-112.5c0,-29.7 11.5,-57.7 32.3,-78.9c20.8,-21.1 48.6,-33.1 78.2,-33.6l3.8,-0.1l0.1,115.6l34.6,103.5l-3.6,1.1c-10.7,3.2 -21.7,4.9 -32.9,4.9zm-5.6,-217.4c-55.2,2.9 -99.5,49.2 -99.5,104.9c0,57.9 47.1,105.1 105.1,105.1c9.2,0 18.3,-1.2 27.1,-3.5l-32.6,-97.2l-0.1,-109.3z" class="st1"/>
  <path fill="#ffffff" id="XMLID_1640_" d="m294.8,379.9l-35.2,-108.2l92.1,-66.9l2.2,3.1c13.3,19 20.3,41.3 20.3,64.5c0,48 -30.5,90.7 -75.8,106.4l-3.6,1.1zm-26.4,-105.4l31.2,95.9c40.4,-15.5 67.3,-54.5 67.3,-98.1c0,-20.4 -5.8,-40.1 -16.9,-57.1l-81.6,59.3z" class="st1"/>
  <path fill="#ffffff" id="XMLID_1328_" d="m71.4,294.6l1.5,-14.7l13.9,0l0,3.8l-10.2,0l-0.8,6.7c0.5,-0.4 1.1,-0.7 1.9,-0.9c0.7,-0.3 1.5,-0.4 2.4,-0.4c2.5,0 4.4,0.7 5.7,2.3c1.4,1.6 2.1,3.7 2.1,6.5c0,2.6 -0.7,4.7 -2.2,6.4c-1.4,1.6 -3.6,2.5 -6.5,2.5c-2.3,0 -4.3,-0.6 -5.9,-1.9c-1.6,-1.3 -2.4,-3 -2.3,-5.4l0,-0.1l4.1,-0.1c0,1.2 0.4,2.2 1.1,2.9c0.7,0.7 1.7,1 2.9,1c1.4,0 2.4,-0.5 3.1,-1.4c0.7,-0.9 1.1,-2.2 1.1,-3.9c0,-1.6 -0.4,-2.9 -1.1,-3.8c-0.7,-1 -1.8,-1.4 -3.2,-1.4c-1.2,0 -2.1,0.2 -2.7,0.6c-0.6,0.4 -1,1 -1.3,1.7l-3.6,-0.4z" class="st1"/>
  <path fill="#ffffff" id="XMLID_1326_" d="m92.5,294.6l1.5,-14.7l14,0l0,3.8l-10.3,0l-0.8,6.7c0.5,-0.4 1.1,-0.7 1.9,-0.9c0.7,-0.3 1.5,-0.4 2.4,-0.4c2.5,0 4.4,0.7 5.7,2.3c1.4,1.6 2.1,3.7 2.1,6.5c0,2.6 -0.7,4.7 -2.2,6.4c-1.4,1.6 -3.6,2.5 -6.5,2.5c-2.3,0 -4.3,-0.6 -5.9,-1.9c-1.6,-1.3 -2.4,-3 -2.3,-5.4l0,-0.1l4.1,-0.1c0,1.2 0.4,2.2 1.1,2.9c0.7,0.7 1.7,1 2.9,1c1.4,0 2.4,-0.5 3.1,-1.4c0.7,-0.9 1.1,-2.2 1.1,-3.9c0,-1.6 -0.4,-2.9 -1.1,-3.8c-0.7,-1 -1.8,-1.4 -3.2,-1.4c-1.2,0 -2.1,0.2 -2.7,0.6c-0.6,0.4 -1,1 -1.3,1.7l-3.6,-0.4z" class="st1"/>
  <path fill="#ffffff" id="XMLID_1320_" d="m112.6,285c0,-1.5 0.5,-2.8 1.5,-3.9c1,-1 2.4,-1.6 4.1,-1.6c1.7,0 3.1,0.5 4.1,1.6c1,1 1.5,2.3 1.5,3.9l0,1.4c0,1.5 -0.5,2.8 -1.5,3.9c-1,1 -2.4,1.6 -4.1,1.6c-1.7,0 -3.1,-0.5 -4.1,-1.6c-1,-1 -1.5,-2.3 -1.5,-3.9l0,-1.4zm3.1,1.4c0,0.8 0.2,1.4 0.7,2c0.4,0.5 1.1,0.8 1.9,0.8c0.8,0 1.4,-0.3 1.8,-0.8c0.4,-0.5 0.6,-1.2 0.6,-2l0,-1.4c0,-0.8 -0.2,-1.5 -0.7,-2c-0.4,-0.5 -1.1,-0.8 -1.9,-0.8c-0.8,0 -1.4,0.3 -1.9,0.8s-0.7,1.2 -0.7,2l0,1.4l0.2,0zm3.5,17.9l-2.3,-1.3l12.9,-20.7l2.3,1.3l-12.9,20.7zm6.1,-4.5c0,-1.5 0.5,-2.8 1.5,-3.9c1,-1 2.4,-1.6 4.1,-1.6c1.7,0 3.1,0.5 4.1,1.6c1,1 1.5,2.3 1.5,3.9l0,1.4c0,1.6 -0.5,2.9 -1.5,3.9c-1,1 -2.4,1.6 -4.1,1.6c-1.7,0 -3.1,-0.5 -4.1,-1.6c-1,-1 -1.5,-2.3 -1.5,-3.9l0,-1.4zm3.1,1.4c0,0.8 0.2,1.4 0.7,2c0.5,0.5 1.1,0.8 1.9,0.8c0.8,0 1.5,-0.3 1.9,-0.8c0.4,-0.5 0.6,-1.2 0.6,-2l0,-1.4c0,-0.8 -0.2,-1.4 -0.7,-2c-0.4,-0.5 -1.1,-0.8 -1.9,-0.8c-0.8,0 -1.4,0.3 -1.9,0.8c-0.4,0.5 -0.7,1.2 -0.7,2l0,1.4l0.1,0z" class="st1"/>
 </g>
</svg>