<svg width="512" height="512" xmlns="http://www.w3.org/2000/svg">

 <g>
  <title>background</title>
  <rect fill="none" id="canvas_background" height="402" width="582" y="-1" x="-1"/>
 </g>
 <g>
  <title>Layer 1</title>
  <circle fill="#b6e6dc" r="256" id="XMLID_1752_" cy="256" cx="256" class="st0"/>
  <path fill="#ffffff" id="XMLID_1739_" d="m265,257.7l0,-124.2l3.5,0.1c51.2,0.9 96.8,34 113.5,82.4l1.2,3.4l-118.2,38.3zm7,-117.1l0,107.5l102.3,-33.2c-16.2,-42.8 -56.6,-72.1 -102.3,-74.3z" class="st1"/>
  <path fill="#ffffff" id="XMLID_1736_" d="m260.9,378.1l-3.5,-0.1c-32.2,-0.5 -62.4,-13.5 -85,-36.5c-22.6,-23 -35.1,-53.5 -35.1,-85.8s12.5,-62.7 35.1,-85.8c22.6,-23 52.8,-35.9 85,-36.5l3.5,-0.1l0,244.8zm-7,-237.5c-60.8,2.9 -109.7,53.8 -109.7,115.2s48.9,112.2 109.7,115.1l0,-230.3z" class="st1"/>
  <path fill="#ffffff" id="XMLID_1733_" d="m265,385.1l0,-123.4l117.3,-38.1l1,3.4c3.5,11.6 5.3,23.6 5.3,35.8c0,32.3 -12.5,62.7 -35.1,85.8c-22.6,23 -52.8,35.9 -85,36.5l-3.5,0zm7,-118.3l0,111.1c60.8,-2.9 109.7,-53.8 109.7,-115.2c0,-10.3 -1.4,-20.5 -4,-30.3l-105.7,34.4z" class="st1"/>
  <path fill="#ffffff" id="XMLID_1634_" d="m362,151.3l-15.5,0l0,-2.8l7.5,-8.7c1.2,-1.4 2.1,-2.6 2.5,-3.6c0.5,-0.9 0.7,-1.8 0.7,-2.7c0,-1 -0.3,-1.9 -0.9,-2.5c-0.6,-0.6 -1.4,-1 -2.5,-1c-1.2,0 -2.2,0.4 -2.9,1.2c-0.7,0.8 -1,1.8 -1,3l-3.9,0l0,-0.1c-0.1,-2.1 0.6,-3.8 2,-5.2c1.4,-1.4 3.3,-2.1 5.7,-2.1c2.3,0 4.1,0.6 5.4,1.9c1.3,1.2 1.9,2.9 1.9,4.9c0,1.4 -0.4,2.6 -1.1,3.8c-0.7,1.2 -1.9,2.8 -3.6,4.8l-5.1,5.8l0,0.1l10.8,0l0,3.2z" class="st1"/>
  <path fill="#ffffff" id="XMLID_1631_" d="m381,142.7c0,2.8 -0.7,5 -2.1,6.6c-1.4,1.6 -3.3,2.4 -5.7,2.4s-4.3,-0.8 -5.7,-2.4c-1.4,-1.6 -2.2,-3.8 -2.2,-6.6l0,-6.8c0,-2.8 0.7,-5 2.1,-6.6c1.4,-1.6 3.3,-2.4 5.7,-2.4s4.3,0.8 5.7,2.4c1.4,1.6 2.2,3.8 2.2,6.6l0,6.8zm-4.1,-7.4c0,-1.6 -0.3,-2.9 -1,-3.8c-0.7,-0.9 -1.6,-1.4 -2.9,-1.4c-1.2,0 -2.2,0.5 -2.9,1.4c-0.7,0.9 -1,2.2 -1,3.8l0,8c0,1.6 0.3,2.9 1,3.8c0.7,0.9 1.6,1.4 2.9,1.4c1.2,0 2.2,-0.5 2.8,-1.4c0.7,-0.9 1,-2.2 1,-3.8l0,-8l0.1,0z" class="st1"/>
  <path fill="#ffffff" id="XMLID_1625_" d="m384.3,131.9c0,-1.4 0.5,-2.6 1.4,-3.5c0.9,-1 2.2,-1.4 3.7,-1.4c1.6,0 2.8,0.5 3.7,1.4c0.9,0.9 1.4,2.1 1.4,3.6l0,1.3c0,1.4 -0.5,2.6 -1.4,3.5c-0.9,0.9 -2.1,1.4 -3.7,1.4c-1.6,0 -2.8,-0.5 -3.8,-1.4s-1.4,-2.1 -1.4,-3.5l0,-1.4l0.1,0zm2.8,1.3c0,0.7 0.2,1.3 0.6,1.8c0.4,0.5 1,0.7 1.7,0.7c0.7,0 1.3,-0.2 1.7,-0.7c0.4,-0.5 0.6,-1.1 0.6,-1.8l0,-1.3c0,-0.7 -0.2,-1.3 -0.6,-1.8c-0.4,-0.5 -1,-0.7 -1.7,-0.7c-0.7,0 -1.3,0.2 -1.7,0.7s-0.6,1.1 -0.6,1.8l0,1.3zm3.2,16.3l-2.1,-1.2l11.7,-18.8l2.1,1.2l-11.7,18.8zm5.6,-4.1c0,-1.4 0.5,-2.6 1.4,-3.5s2.2,-1.4 3.7,-1.4c1.6,0 2.8,0.5 3.7,1.4c0.9,0.9 1.4,2.1 1.4,3.5l0,1.3c0,1.4 -0.5,2.6 -1.4,3.5c-0.9,0.9 -2.1,1.4 -3.7,1.4c-1.6,0 -2.8,-0.5 -3.8,-1.4c-0.9,-0.9 -1.4,-2.1 -1.4,-3.5l0,-1.3l0.1,0zm2.8,1.3c0,0.7 0.2,1.3 0.6,1.8c0.4,0.5 1,0.7 1.7,0.7c0.8,0 1.3,-0.2 1.7,-0.7c0.4,-0.5 0.6,-1.1 0.6,-1.8l0,-1.3c0,-0.7 -0.2,-1.3 -0.6,-1.8c-0.4,-0.5 -1,-0.7 -1.7,-0.7c-0.7,0 -1.3,0.2 -1.7,0.7s-0.6,1.1 -0.6,1.8l0,1.3z" class="st1"/>
  <path fill="#ffffff" id="XMLID_1622_" d="m386.7,337.3c1.3,0 2.2,-0.3 2.8,-1c0.6,-0.6 0.9,-1.6 0.9,-2.7c0,-1 -0.3,-1.9 -0.9,-2.6c-0.6,-0.7 -1.5,-1 -2.7,-1c-1.1,0 -2,0.3 -2.7,1s-1.1,1.5 -1.1,2.4l-3.8,0l0,-0.1c-0.1,-1.8 0.6,-3.4 2.1,-4.6c1.5,-1.3 3.3,-1.9 5.5,-1.9c2.3,0 4.2,0.6 5.6,1.7c1.4,1.2 2,2.8 2,5c0,1.1 -0.3,2.1 -0.9,3c-0.6,0.9 -1.4,1.6 -2.5,2.2c1.2,0.5 2.2,1.2 2.8,2.2c0.6,1 1,2.2 1,3.5c0,2.2 -0.7,3.9 -2.2,5.2s-3.4,1.9 -5.7,1.9c-2.1,0 -4,-0.6 -5.6,-1.8c-1.6,-1.2 -2.4,-2.8 -2.3,-4.9l0,-0.1l3.9,0c0,1 0.4,1.9 1.1,2.6c0.7,0.7 1.7,1 2.9,1c1.2,0 2.2,-0.4 2.9,-1.1s1.1,-1.6 1.1,-2.8c0,-1.4 -0.3,-2.4 -1,-3.1s-1.7,-1 -3,-1l-2.9,0l0,-3.2l2.7,0l0,0.2z" class="st1"/>
  <path fill="#ffffff" id="XMLID_1619_" d="m413.9,342.7c0,2.8 -0.7,5 -2.1,6.6c-1.4,1.6 -3.3,2.4 -5.7,2.4s-4.3,-0.8 -5.7,-2.4c-1.4,-1.6 -2.2,-3.8 -2.2,-6.6l0,-6.8c0,-2.8 0.7,-5 2.1,-6.6c1.4,-1.6 3.3,-2.4 5.7,-2.4c2.4,0 4.3,0.8 5.7,2.4c1.4,1.6 2.2,3.8 2.2,6.6l0,6.8zm-4.1,-7.4c0,-1.6 -0.3,-2.9 -1,-3.8s-1.6,-1.4 -2.9,-1.4c-1.2,0 -2.2,0.5 -2.9,1.4s-1,2.2 -1,3.8l0,8c0,1.6 0.3,2.9 1,3.8c0.7,0.9 1.6,1.4 2.9,1.4c1.2,0 2.2,-0.5 2.8,-1.4s1,-2.2 1,-3.8l0,-8l0.1,0z" class="st1"/>
  <path fill="#ffffff" id="XMLID_1613_" d="m417.2,331.9c0,-1.4 0.5,-2.6 1.4,-3.5c0.9,-1 2.2,-1.4 3.7,-1.4c1.6,0 2.8,0.5 3.7,1.4c0.9,0.9 1.4,2.1 1.4,3.6l0,1.3c0,1.4 -0.5,2.6 -1.4,3.5s-2.1,1.4 -3.7,1.4c-1.6,0 -2.8,-0.5 -3.8,-1.4c-0.9,-0.9 -1.4,-2.1 -1.4,-3.5l0,-1.4l0.1,0zm2.8,1.2c0,0.7 0.2,1.3 0.6,1.8c0.4,0.5 1,0.7 1.7,0.7c0.7,0 1.3,-0.2 1.7,-0.7c0.4,-0.5 0.6,-1.1 0.6,-1.8l0,-1.3c0,-0.7 -0.2,-1.3 -0.6,-1.8c-0.4,-0.5 -1,-0.7 -1.7,-0.7c-0.7,0 -1.3,0.2 -1.7,0.7s-0.6,1.1 -0.6,1.8l0,1.3zm3.2,16.4l-2.1,-1.2l11.7,-18.8l2.1,1.2l-11.7,18.8zm5.6,-4.1c0,-1.4 0.5,-2.6 1.4,-3.5c0.9,-1 2.2,-1.4 3.7,-1.4c1.6,0 2.8,0.5 3.7,1.4c0.9,0.9 1.4,2.1 1.4,3.5l0,1.3c0,1.4 -0.5,2.6 -1.4,3.5s-2.1,1.4 -3.7,1.4c-1.6,0 -2.8,-0.5 -3.8,-1.4c-0.9,-0.9 -1.4,-2.1 -1.4,-3.5l0,-1.3l0.1,0zm2.8,1.3c0,0.7 0.2,1.3 0.6,1.8s1,0.7 1.7,0.7c0.8,0 1.3,-0.2 1.7,-0.7c0.4,-0.5 0.6,-1.1 0.6,-1.8l0,-1.3c0,-0.7 -0.2,-1.3 -0.6,-1.8c-0.4,-0.5 -1,-0.7 -1.7,-0.7c-0.7,0 -1.3,0.2 -1.7,0.7s-0.6,1.1 -0.6,1.8l0,1.3z" class="st1"/>
  <path fill="#ffffff" id="XMLID_1610_" d="m69.4,247.1l1.4,-13.4l12.7,0l0,3.5l-9.4,0l-0.7,6.1c0.5,-0.3 1,-0.6 1.7,-0.9c0.7,-0.2 1.4,-0.4 2.2,-0.4c2.2,0 4,0.7 5.2,2.1c1.2,1.4 1.9,3.4 1.9,5.9c0,2.4 -0.7,4.3 -2,5.8s-3.3,2.2 -5.9,2.2c-2.1,0 -3.9,-0.6 -5.4,-1.7c-1.5,-1.1 -2.2,-2.8 -2.1,-4.9l0,-0.1l3.8,-0.1c0,1.1 0.3,2 1,2.6c0.7,0.6 1.6,0.9 2.7,0.9c1.3,0 2.2,-0.4 2.9,-1.3c0.6,-0.8 1,-2 1,-3.5c0,-1.4 -0.3,-2.6 -1,-3.5c-0.7,-0.9 -1.6,-1.3 -2.9,-1.3c-1.1,0 -1.9,0.2 -2.5,0.5c-0.5,0.4 -0.9,0.9 -1.2,1.6l-3.4,-0.1z" class="st1"/>
  <path fill="#ffffff" id="XMLID_1607_" d="m103.5,249.2c0,2.8 -0.7,5 -2.1,6.6c-1.4,1.6 -3.3,2.4 -5.7,2.4c-2.4,0 -4.3,-0.8 -5.7,-2.4s-2.2,-3.8 -2.2,-6.6l0,-6.8c0,-2.8 0.7,-5 2.1,-6.6c1.4,-1.6 3.3,-2.4 5.7,-2.4c2.4,0 4.3,0.8 5.7,2.4c1.4,1.6 2.2,3.8 2.2,6.6l0,6.8zm-4,-7.5c0,-1.6 -0.3,-2.9 -1,-3.8c-0.7,-0.9 -1.6,-1.4 -2.9,-1.4c-1.2,0 -2.2,0.5 -2.9,1.4c-0.7,0.9 -1,2.2 -1,3.8l0,8c0,1.6 0.3,2.9 1,3.8c0.7,0.9 1.6,1.4 2.9,1.4s2.2,-0.5 2.8,-1.4c0.7,-0.9 1,-2.2 1,-3.8l0,-8l0.1,0z" class="st1"/>
  <path fill="#ffffff" id="XMLID_1601_" d="m106.9,238.4c0,-1.4 0.5,-2.6 1.4,-3.5c0.9,-1 2.2,-1.4 3.7,-1.4c1.6,0 2.8,0.5 3.7,1.4c0.9,0.9 1.4,2.1 1.4,3.6l0,1.3c0,1.4 -0.5,2.6 -1.4,3.5c-0.9,0.9 -2.1,1.4 -3.7,1.4c-1.6,0 -2.8,-0.5 -3.8,-1.4s-1.4,-2.1 -1.4,-3.5l0,-1.4l0.1,0zm2.8,1.2c0,0.7 0.2,1.3 0.6,1.8c0.4,0.5 1,0.7 1.7,0.7c0.7,0 1.3,-0.2 1.7,-0.7c0.4,-0.5 0.6,-1.1 0.6,-1.8l0,-1.3c0,-0.7 -0.2,-1.3 -0.6,-1.8c-0.4,-0.5 -1,-0.7 -1.7,-0.7c-0.7,0 -1.3,0.2 -1.7,0.7s-0.6,1.1 -0.6,1.8l0,1.3zm3.1,16.4l-2.1,-1.2l11.7,-18.8l2.1,1.2l-11.7,18.8zm5.6,-4.1c0,-1.4 0.5,-2.6 1.4,-3.5c0.9,-1 2.2,-1.4 3.7,-1.4c1.6,0 2.8,0.5 3.7,1.4c0.9,0.9 1.4,2.1 1.4,3.5l0,1.3c0,1.4 -0.5,2.6 -1.4,3.5c-0.9,0.9 -2.1,1.4 -3.7,1.4c-1.6,0 -2.8,-0.5 -3.8,-1.4c-0.9,-0.9 -1.4,-2.1 -1.4,-3.5l0,-1.3l0.1,0zm2.8,1.3c0,0.7 0.2,1.3 0.6,1.8c0.4,0.5 1,0.7 1.7,0.7c0.8,0 1.3,-0.2 1.7,-0.7s0.6,-1.1 0.6,-1.8l0,-1.3c0,-0.7 -0.2,-1.3 -0.6,-1.8c-0.4,-0.5 -1,-0.7 -1.7,-0.7s-1.3,0.2 -1.7,0.7s-0.6,1.1 -0.6,1.8l0,1.3z" class="st1"/>
 </g>
</svg>